<svg xmlns="http://www.w3.org/2000/svg" xmlns:xlink="http://www.w3.org/1999/xlink" width="400" zoomAndPan="magnify" viewBox="0 0 300 74.999997" height="100" preserveAspectRatio="xMidYMid meet" version="1.0"><defs><g/><clipPath id="5511c1db2d"><path d="M 1 21 L 54 21 L 54 53 L 1 53 Z M 1 21 " clip-rule="nonzero"/></clipPath><clipPath id="2d4d2f1283"><path d="M 27.585938 -2.605469 L 67.25 37.058594 L 27.585938 76.726562 L -12.082031 37.058594 Z M 27.585938 -2.605469 " clip-rule="nonzero"/></clipPath><clipPath id="715b3aff47"><path d="M 27.585938 -2.605469 L 67.25 37.058594 L 27.585938 76.726562 L -12.082031 37.058594 Z M 27.585938 -2.605469 " clip-rule="nonzero"/></clipPath><clipPath id="d7066d591e"><path d="M 47 28 L 49 28 L 49 47 L 47 47 Z M 47 28 " clip-rule="nonzero"/></clipPath><clipPath id="f8401a4623"><path d="M 27.585938 -2.605469 L 67.25 37.058594 L 27.585938 76.726562 L -12.082031 37.058594 Z M 27.585938 -2.605469 " clip-rule="nonzero"/></clipPath><clipPath id="c30228492a"><path d="M 27.585938 -2.605469 L 67.25 37.058594 L 27.585938 76.726562 L -12.082031 37.058594 Z M 27.585938 -2.605469 " clip-rule="nonzero"/></clipPath><clipPath id="747d2d7935"><path d="M 4 28 L 7 28 L 7 47 L 4 47 Z M 4 28 " clip-rule="nonzero"/></clipPath><clipPath id="b491bcb69c"><path d="M 27.585938 -2.605469 L 67.25 37.058594 L 27.585938 76.726562 L -12.082031 37.058594 Z M 27.585938 -2.605469 " clip-rule="nonzero"/></clipPath><clipPath id="0c81a86ba8"><path d="M 27.585938 -2.605469 L 67.25 37.058594 L 27.585938 76.726562 L -12.082031 37.058594 Z M 27.585938 -2.605469 " clip-rule="nonzero"/></clipPath><clipPath id="273508109e"><path d="M 43 28 L 45 28 L 45 47 L 43 47 Z M 43 28 " clip-rule="nonzero"/></clipPath><clipPath id="6391632ba5"><path d="M 27.585938 -2.605469 L 67.25 37.058594 L 27.585938 76.726562 L -12.082031 37.058594 Z M 27.585938 -2.605469 " clip-rule="nonzero"/></clipPath><clipPath id="3d361d1857"><path d="M 27.585938 -2.605469 L 67.25 37.058594 L 27.585938 76.726562 L -12.082031 37.058594 Z M 27.585938 -2.605469 " clip-rule="nonzero"/></clipPath><clipPath id="3c31803d21"><path d="M 8 28 L 11 28 L 11 47 L 8 47 Z M 8 28 " clip-rule="nonzero"/></clipPath><clipPath id="4e94c429ff"><path d="M 27.585938 -2.605469 L 67.25 37.058594 L 27.585938 76.726562 L -12.082031 37.058594 Z M 27.585938 -2.605469 " clip-rule="nonzero"/></clipPath><clipPath id="45df98ff1b"><path d="M 27.585938 -2.605469 L 67.25 37.058594 L 27.585938 76.726562 L -12.082031 37.058594 Z M 27.585938 -2.605469 " clip-rule="nonzero"/></clipPath><clipPath id="79e5498ac9"><path d="M 39 29 L 41 29 L 41 46 L 39 46 Z M 39 29 " clip-rule="nonzero"/></clipPath><clipPath id="46c4976f74"><path d="M 27.585938 -2.605469 L 67.25 37.058594 L 27.585938 76.726562 L -12.082031 37.058594 Z M 27.585938 -2.605469 " clip-rule="nonzero"/></clipPath><clipPath id="65becc89e4"><path d="M 27.585938 -2.605469 L 67.25 37.058594 L 27.585938 76.726562 L -12.082031 37.058594 Z M 27.585938 -2.605469 " clip-rule="nonzero"/></clipPath><clipPath id="bd808df35b"><path d="M 12 29 L 15 29 L 15 46 L 12 46 Z M 12 29 " clip-rule="nonzero"/></clipPath><clipPath id="1784225981"><path d="M 27.585938 -2.605469 L 67.25 37.058594 L 27.585938 76.726562 L -12.082031 37.058594 Z M 27.585938 -2.605469 " clip-rule="nonzero"/></clipPath><clipPath id="17282feb6a"><path d="M 27.585938 -2.605469 L 67.25 37.058594 L 27.585938 76.726562 L -12.082031 37.058594 Z M 27.585938 -2.605469 " clip-rule="nonzero"/></clipPath><clipPath id="f9a632d205"><path d="M 35 32 L 37 32 L 37 42 L 35 42 Z M 35 32 " clip-rule="nonzero"/></clipPath><clipPath id="dfee56a572"><path d="M 27.585938 -2.605469 L 67.25 37.058594 L 27.585938 76.726562 L -12.082031 37.058594 Z M 27.585938 -2.605469 " clip-rule="nonzero"/></clipPath><clipPath id="21b62ec8af"><path d="M 27.585938 -2.605469 L 67.25 37.058594 L 27.585938 76.726562 L -12.082031 37.058594 Z M 27.585938 -2.605469 " clip-rule="nonzero"/></clipPath><clipPath id="a4a08fc285"><path d="M 16 32 L 19 32 L 19 42 L 16 42 Z M 16 32 " clip-rule="nonzero"/></clipPath><clipPath id="3225ac340c"><path d="M 27.585938 -2.605469 L 67.25 37.058594 L 27.585938 76.726562 L -12.082031 37.058594 Z M 27.585938 -2.605469 " clip-rule="nonzero"/></clipPath><clipPath id="9f1eca0177"><path d="M 27.585938 -2.605469 L 67.25 37.058594 L 27.585938 76.726562 L -12.082031 37.058594 Z M 27.585938 -2.605469 " clip-rule="nonzero"/></clipPath><clipPath id="5f8a43c7a4"><path d="M 1 0.121094 L 7 0.121094 L 7 11 L 1 11 Z M 1 0.121094 " clip-rule="nonzero"/></clipPath><clipPath id="6c7a5733ce"><path d="M 12 0.121094 L 15 0.121094 L 15 11 L 12 11 Z M 12 0.121094 " clip-rule="nonzero"/></clipPath><clipPath id="f3103c70a9"><path d="M 20 0.121094 L 27 0.121094 L 27 11 L 20 11 Z M 20 0.121094 " clip-rule="nonzero"/></clipPath><clipPath id="9cd78cfd88"><path d="M 32 0.121094 L 39 0.121094 L 39 11 L 32 11 Z M 32 0.121094 " clip-rule="nonzero"/></clipPath><clipPath id="c162032912"><path d="M 0.121094 18 L 8 18 L 8 29 L 0.121094 29 Z M 0.121094 18 " clip-rule="nonzero"/></clipPath><clipPath id="ef427dbbe9"><rect x="0" width="93" y="0" height="33"/></clipPath><clipPath id="a400046fd7"><rect x="0" width="139" y="0" height="53"/></clipPath><clipPath id="89b474a753"><rect x="0" width="300" y="0" height="75"/></clipPath></defs><g transform="matrix(1, 0, 0, 1, 0, -0.000000000000001893)"><g clip-path="url(#89b474a753)"><g clip-path="url(#5511c1db2d)"><g clip-path="url(#2d4d2f1283)"><g clip-path="url(#715b3aff47)"><path fill="#86bc24" d="M 14.164062 25.789062 L 25.511719 37.136719 L 14.164062 48.484375 L 4.660156 48.484375 C 4.050781 48.484375 3.554688 48.980469 3.554688 49.59375 C 3.554688 50.183594 4.070312 50.703125 4.660156 50.699219 L 14.621094 50.699219 C 14.917969 50.699219 15.195312 50.585938 15.40625 50.375 L 27.078125 38.703125 L 38.75 50.375 C 38.960938 50.585938 39.238281 50.699219 39.535156 50.699219 L 50.507812 50.703125 C 51.117188 50.699219 51.613281 50.203125 51.613281 49.59375 C 51.613281 48.980469 51.117188 48.484375 50.507812 48.484375 L 39.996094 48.484375 L 28.644531 37.136719 L 39.992188 25.789062 L 50.507812 25.789062 C 50.804688 25.789062 51.082031 25.671875 51.289062 25.464844 C 51.5 25.253906 51.613281 24.976562 51.613281 24.679688 C 51.613281 24.089844 51.097656 23.574219 50.507812 23.574219 L 39.535156 23.574219 C 39.242188 23.574219 38.957031 23.691406 38.75 23.898438 L 27.078125 35.570312 L 15.40625 23.898438 C 15.199219 23.691406 14.914062 23.574219 14.621094 23.574219 L 4.664062 23.574219 C 4.367188 23.574219 4.085938 23.6875 3.878906 23.898438 C 3.667969 24.105469 3.554688 24.382812 3.554688 24.679688 C 3.554688 25.292969 4.050781 25.789062 4.664062 25.789062 Z M 2.675781 51.582031 C 2.144531 51.050781 1.851562 50.34375 1.851562 49.59375 C 1.851562 48.042969 3.109375 46.78125 4.660156 46.78125 L 13.457031 46.78125 L 23.101562 37.136719 L 13.457031 27.492188 L 4.664062 27.492188 C 3.113281 27.496094 1.847656 26.230469 1.851562 24.679688 C 1.851562 23.128906 3.109375 21.867188 4.660156 21.867188 L 14.621094 21.867188 C 15.363281 21.871094 16.085938 22.167969 16.613281 22.691406 L 27.078125 33.160156 L 37.546875 22.691406 C 38.070312 22.167969 38.796875 21.867188 39.535156 21.867188 L 50.507812 21.867188 C 52.054688 21.867188 53.320312 23.132812 53.320312 24.679688 C 53.320312 26.230469 52.058594 27.492188 50.507812 27.492188 L 40.699219 27.492188 L 31.054688 37.136719 L 40.699219 46.78125 L 50.507812 46.78125 C 52.054688 46.78125 53.320312 48.042969 53.320312 49.59375 C 53.320312 51.144531 52.058594 52.402344 50.507812 52.40625 L 39.535156 52.40625 C 38.785156 52.40625 38.078125 52.113281 37.546875 51.582031 L 27.078125 41.113281 L 16.609375 51.582031 C 16.078125 52.113281 15.375 52.40625 14.621094 52.40625 L 4.660156 52.40625 C 3.910156 52.40625 3.203125 52.113281 2.675781 51.582031 " fill-opacity="1" fill-rule="nonzero"/></g></g></g><g clip-path="url(#d7066d591e)"><g clip-path="url(#f8401a4623)"><g clip-path="url(#c30228492a)"><path fill="#86bc24" d="M 47.46875 46.25 C 47.316406 46.097656 47.21875 45.886719 47.21875 45.648438 L 47.21875 29.101562 C 47.21875 28.632812 47.601562 28.25 48.070312 28.25 C 48.542969 28.25 48.921875 28.632812 48.921875 29.101562 L 48.925781 45.648438 C 48.925781 46.121094 48.542969 46.5 48.070312 46.5 C 47.835938 46.5 47.625 46.40625 47.46875 46.25 " fill-opacity="1" fill-rule="nonzero"/></g></g></g><g clip-path="url(#747d2d7935)"><g clip-path="url(#b491bcb69c)"><g clip-path="url(#0c81a86ba8)"><path fill="#86bc24" d="M 5.011719 46.25 C 4.855469 46.097656 4.761719 45.882812 4.761719 45.648438 L 4.761719 29.101562 C 4.761719 28.632812 5.144531 28.25 5.613281 28.25 C 6.085938 28.25 6.464844 28.632812 6.464844 29.101562 L 6.464844 45.648438 C 6.464844 46.121094 6.082031 46.5 5.613281 46.5 C 5.378906 46.5 5.164062 46.40625 5.011719 46.25 " fill-opacity="1" fill-rule="nonzero"/></g></g></g><g clip-path="url(#273508109e)"><g clip-path="url(#6391632ba5)"><g clip-path="url(#3d361d1857)"><path fill="#86bc24" d="M 43.476562 46.25 C 43.324219 46.097656 43.226562 45.882812 43.226562 45.648438 L 43.230469 29.101562 C 43.230469 28.632812 43.609375 28.25 44.082031 28.25 C 44.550781 28.25 44.933594 28.632812 44.933594 29.101562 L 44.933594 45.648438 C 44.933594 46.121094 44.550781 46.5 44.082031 46.5 C 43.84375 46.5 43.632812 46.40625 43.476562 46.25 " fill-opacity="1" fill-rule="nonzero"/></g></g></g><g clip-path="url(#3c31803d21)"><g clip-path="url(#4e94c429ff)"><g clip-path="url(#45df98ff1b)"><path fill="#86bc24" d="M 9 46.25 C 8.847656 46.097656 8.75 45.882812 8.75 45.648438 L 8.75 29.101562 C 8.75 28.632812 9.132812 28.25 9.601562 28.25 C 10.074219 28.25 10.453125 28.632812 10.457031 29.101562 L 10.453125 45.648438 C 10.453125 46.121094 10.074219 46.5 9.601562 46.5 C 9.367188 46.5 9.152344 46.40625 9 46.25 " fill-opacity="1" fill-rule="nonzero"/></g></g></g><g clip-path="url(#79e5498ac9)"><g clip-path="url(#46c4976f74)"><g clip-path="url(#65becc89e4)"><path fill="#86bc24" d="M 39.488281 45.152344 C 39.335938 44.996094 39.238281 44.785156 39.238281 44.546875 L 39.238281 30.203125 C 39.238281 29.734375 39.621094 29.351562 40.089844 29.351562 C 40.5625 29.351562 40.941406 29.734375 40.941406 30.203125 L 40.945312 44.546875 C 40.945312 45.019531 40.5625 45.402344 40.089844 45.402344 C 39.855469 45.402344 39.644531 45.304688 39.488281 45.152344 " fill-opacity="1" fill-rule="nonzero"/></g></g></g><g clip-path="url(#bd808df35b)"><g clip-path="url(#1784225981)"><g clip-path="url(#17282feb6a)"><path fill="#86bc24" d="M 12.992188 45.152344 C 12.835938 44.996094 12.742188 44.785156 12.742188 44.546875 L 12.742188 30.203125 C 12.742188 29.734375 13.125 29.351562 13.59375 29.351562 C 14.0625 29.351562 14.445312 29.734375 14.445312 30.203125 L 14.445312 44.546875 C 14.445312 45.019531 14.0625 45.398438 13.59375 45.398438 C 13.359375 45.398438 13.144531 45.304688 12.992188 45.152344 " fill-opacity="1" fill-rule="nonzero"/></g></g></g><g clip-path="url(#f9a632d205)"><g clip-path="url(#dfee56a572)"><g clip-path="url(#21b62ec8af)"><path fill="#86bc24" d="M 35.496094 41.609375 C 35.34375 41.457031 35.246094 41.242188 35.246094 41.007812 L 35.25 33.742188 C 35.25 33.273438 35.628906 32.890625 36.101562 32.890625 C 36.570312 32.890625 36.953125 33.273438 36.953125 33.742188 L 36.953125 41.007812 C 36.953125 41.480469 36.570312 41.859375 36.101562 41.859375 C 35.863281 41.859375 35.652344 41.765625 35.496094 41.609375 " fill-opacity="1" fill-rule="nonzero"/></g></g></g><g clip-path="url(#a4a08fc285)"><g clip-path="url(#3225ac340c)"><g clip-path="url(#9f1eca0177)"><path fill="#86bc24" d="M 16.980469 41.609375 C 16.828125 41.457031 16.730469 41.242188 16.730469 41.007812 L 16.730469 33.742188 C 16.730469 33.273438 17.113281 32.890625 17.582031 32.890625 C 18.054688 32.890625 18.4375 33.273438 18.4375 33.742188 L 18.433594 41.007812 C 18.433594 41.476562 18.054688 41.859375 17.582031 41.859375 C 17.347656 41.859375 17.136719 41.765625 16.980469 41.609375 " fill-opacity="1" fill-rule="nonzero"/></g></g></g><g transform="matrix(1, 0, 0, 1, 207, 21)"><g clip-path="url(#ef427dbbe9)"><g clip-path="url(#5f8a43c7a4)"><g fill="#86bc24" fill-opacity="1"><g transform="translate(0.160931, 10.23916)"><g><path d="M 6.609375 -0.328125 C 6.609375 -0.179688 6.519531 -0.0859375 6.34375 -0.046875 C 6.195312 -0.0234375 6 -0.00390625 5.75 0.015625 C 5.5 0.046875 5.234375 0.0703125 4.953125 0.09375 C 4.671875 0.113281 4.410156 0.125 4.171875 0.125 C 3.742188 0.125 3.332031 0.0820312 2.9375 0 C 2.550781 -0.0703125 2.207031 -0.207031 1.90625 -0.40625 C 1.601562 -0.601562 1.363281 -0.890625 1.1875 -1.265625 C 1.019531 -1.640625 0.9375 -2.128906 0.9375 -2.734375 L 0.9375 -9.609375 C 0.9375 -9.679688 0.960938 -9.742188 1.015625 -9.796875 C 1.066406 -9.847656 1.128906 -9.875 1.203125 -9.875 L 2.9375 -9.875 C 3.007812 -9.875 3.070312 -9.847656 3.125 -9.796875 C 3.175781 -9.742188 3.203125 -9.679688 3.203125 -9.609375 L 3.203125 -2.734375 C 3.203125 -2.390625 3.265625 -2.148438 3.390625 -2.015625 C 3.523438 -1.890625 3.75 -1.828125 4.0625 -1.828125 L 6.34375 -1.828125 C 6.414062 -1.828125 6.476562 -1.800781 6.53125 -1.75 C 6.582031 -1.695312 6.609375 -1.632812 6.609375 -1.5625 Z M 6.609375 -0.328125 "/></g></g></g></g><g clip-path="url(#6c7a5733ce)"><g fill="#86bc24" fill-opacity="1"><g transform="translate(11.397815, 10.23916)"><g><path d="M 3.203125 -0.265625 C 3.203125 -0.191406 3.175781 -0.128906 3.125 -0.078125 C 3.082031 -0.0234375 3.023438 0 2.953125 0 L 1.171875 0 C 1.097656 0 1.039062 -0.0234375 1 -0.078125 C 0.957031 -0.128906 0.9375 -0.191406 0.9375 -0.265625 L 0.9375 -9.625 C 0.9375 -9.789062 1.015625 -9.875 1.171875 -9.875 L 2.953125 -9.875 C 3.117188 -9.875 3.203125 -9.789062 3.203125 -9.625 Z M 3.203125 -0.265625 "/></g></g></g></g><g clip-path="url(#f3103c70a9)"><g fill="#86bc24" fill-opacity="1"><g transform="translate(19.869398, 10.23916)"><g><path d="M 6.96875 -8.3125 C 6.96875 -8.238281 6.941406 -8.175781 6.890625 -8.125 C 6.835938 -8.070312 6.773438 -8.046875 6.703125 -8.046875 L 4 -8.046875 C 3.6875 -8.046875 3.46875 -7.976562 3.34375 -7.84375 C 3.21875 -7.71875 3.15625 -7.484375 3.15625 -7.140625 L 3.15625 -5.9375 L 6.59375 -5.9375 C 6.664062 -5.9375 6.726562 -5.910156 6.78125 -5.859375 C 6.832031 -5.804688 6.859375 -5.742188 6.859375 -5.671875 L 6.859375 -4.421875 C 6.859375 -4.347656 6.832031 -4.285156 6.78125 -4.234375 C 6.726562 -4.179688 6.664062 -4.15625 6.59375 -4.15625 L 3.15625 -4.15625 L 3.15625 -0.265625 C 3.15625 -0.191406 3.125 -0.128906 3.0625 -0.078125 C 3.007812 -0.0234375 2.953125 0 2.890625 0 L 1.15625 0 C 1.082031 0 1.019531 -0.0234375 0.96875 -0.078125 C 0.914062 -0.128906 0.890625 -0.191406 0.890625 -0.265625 L 0.890625 -7.140625 C 0.890625 -7.742188 0.972656 -8.234375 1.140625 -8.609375 C 1.316406 -8.984375 1.554688 -9.269531 1.859375 -9.46875 C 2.171875 -9.664062 2.519531 -9.800781 2.90625 -9.875 C 3.300781 -9.945312 3.710938 -9.984375 4.140625 -9.984375 C 4.859375 -9.984375 5.40625 -9.960938 5.78125 -9.921875 C 6.164062 -9.878906 6.472656 -9.84375 6.703125 -9.8125 C 6.878906 -9.78125 6.96875 -9.691406 6.96875 -9.546875 Z M 6.96875 -8.3125 "/></g></g></g></g><g clip-path="url(#9cd78cfd88)"><g fill="#86bc24" fill-opacity="1"><g transform="translate(31.930563, 10.23916)"><g><path d="M 6.96875 -0.328125 C 6.96875 -0.171875 6.878906 -0.078125 6.703125 -0.046875 C 6.472656 -0.015625 6.164062 0.0195312 5.78125 0.0625 C 5.394531 0.101562 4.84375 0.125 4.125 0.125 C 3.695312 0.125 3.285156 0.0820312 2.890625 0 C 2.503906 -0.0703125 2.160156 -0.207031 1.859375 -0.40625 C 1.554688 -0.601562 1.316406 -0.890625 1.140625 -1.265625 C 0.972656 -1.640625 0.890625 -2.128906 0.890625 -2.734375 L 0.890625 -7.15625 C 0.890625 -7.757812 0.972656 -8.25 1.140625 -8.625 C 1.316406 -9 1.554688 -9.285156 1.859375 -9.484375 C 2.171875 -9.679688 2.519531 -9.816406 2.90625 -9.890625 C 3.300781 -9.960938 3.710938 -10 4.140625 -10 C 4.859375 -10 5.40625 -9.976562 5.78125 -9.9375 C 6.164062 -9.894531 6.472656 -9.859375 6.703125 -9.828125 C 6.878906 -9.796875 6.96875 -9.707031 6.96875 -9.5625 L 6.96875 -8.328125 C 6.96875 -8.253906 6.941406 -8.191406 6.890625 -8.140625 C 6.835938 -8.085938 6.773438 -8.0625 6.703125 -8.0625 L 4 -8.0625 C 3.6875 -8.0625 3.46875 -7.992188 3.34375 -7.859375 C 3.21875 -7.734375 3.15625 -7.5 3.15625 -7.15625 L 3.15625 -5.9375 L 6.59375 -5.9375 C 6.664062 -5.9375 6.726562 -5.910156 6.78125 -5.859375 C 6.832031 -5.804688 6.859375 -5.742188 6.859375 -5.671875 L 6.859375 -4.421875 C 6.859375 -4.347656 6.832031 -4.285156 6.78125 -4.234375 C 6.726562 -4.179688 6.664062 -4.15625 6.59375 -4.15625 L 3.15625 -4.15625 L 3.15625 -2.734375 C 3.15625 -2.390625 3.21875 -2.148438 3.34375 -2.015625 C 3.46875 -1.890625 3.6875 -1.828125 4 -1.828125 L 6.703125 -1.828125 C 6.773438 -1.828125 6.835938 -1.800781 6.890625 -1.75 C 6.941406 -1.695312 6.96875 -1.632812 6.96875 -1.5625 Z M 6.96875 -0.328125 "/></g></g></g></g><g fill="#86bc24" fill-opacity="1"><g transform="translate(43.99096, 10.23916)"><g/></g></g><g clip-path="url(#c162032912)"><g fill="#86bc24" fill-opacity="1"><g transform="translate(0.160931, 28.537411)"><g><path d="M 7.265625 -2.796875 C 7.265625 -2.441406 7.195312 -2.09375 7.0625 -1.75 C 6.9375 -1.40625 6.734375 -1.09375 6.453125 -0.8125 C 6.171875 -0.53125 5.796875 -0.300781 5.328125 -0.125 C 4.867188 0.0390625 4.300781 0.125 3.625 0.125 C 3.101562 0.125 2.640625 0.09375 2.234375 0.03125 C 1.828125 -0.0195312 1.453125 -0.0859375 1.109375 -0.171875 C 1.054688 -0.191406 1 -0.222656 0.9375 -0.265625 C 0.875 -0.304688 0.84375 -0.363281 0.84375 -0.4375 L 0.84375 -1.734375 C 0.84375 -1.910156 0.925781 -2 1.09375 -2 C 1.101562 -2 1.109375 -2 1.109375 -2 C 1.109375 -2 1.113281 -2 1.125 -2 C 1.257812 -1.988281 1.441406 -1.972656 1.671875 -1.953125 C 1.898438 -1.929688 2.144531 -1.910156 2.40625 -1.890625 C 2.664062 -1.878906 2.90625 -1.863281 3.125 -1.84375 C 3.34375 -1.832031 3.519531 -1.828125 3.65625 -1.828125 C 4.113281 -1.828125 4.425781 -1.898438 4.59375 -2.046875 C 4.757812 -2.203125 4.84375 -2.441406 4.84375 -2.765625 C 4.84375 -2.960938 4.78125 -3.128906 4.65625 -3.265625 C 4.539062 -3.398438 4.3125 -3.570312 3.96875 -3.78125 L 2.125 -4.859375 C 1.507812 -5.222656 1.09375 -5.613281 0.875 -6.03125 C 0.664062 -6.457031 0.5625 -6.914062 0.5625 -7.40625 C 0.5625 -7.894531 0.664062 -8.332031 0.875 -8.71875 C 1.082031 -9.113281 1.429688 -9.425781 1.921875 -9.65625 C 2.421875 -9.882812 3.101562 -10 3.96875 -10 C 4.289062 -10 4.640625 -9.984375 5.015625 -9.953125 C 5.390625 -9.921875 5.734375 -9.878906 6.046875 -9.828125 C 6.367188 -9.785156 6.613281 -9.742188 6.78125 -9.703125 C 6.832031 -9.691406 6.878906 -9.664062 6.921875 -9.625 C 6.960938 -9.59375 6.984375 -9.539062 6.984375 -9.46875 L 6.984375 -8.125 C 6.984375 -8.0625 6.96875 -8.003906 6.9375 -7.953125 C 6.90625 -7.910156 6.84375 -7.890625 6.75 -7.890625 C 6.75 -7.890625 6.742188 -7.890625 6.734375 -7.890625 C 6.640625 -7.898438 6.484375 -7.910156 6.265625 -7.921875 C 6.046875 -7.941406 5.796875 -7.957031 5.515625 -7.96875 C 5.242188 -7.988281 4.960938 -8.003906 4.671875 -8.015625 C 4.390625 -8.035156 4.132812 -8.046875 3.90625 -8.046875 C 3.53125 -8.046875 3.265625 -7.988281 3.109375 -7.875 C 2.953125 -7.757812 2.875 -7.582031 2.875 -7.34375 C 2.875 -7.15625 2.929688 -7 3.046875 -6.875 C 3.171875 -6.757812 3.410156 -6.601562 3.765625 -6.40625 L 5.46875 -5.484375 C 6.15625 -5.117188 6.625 -4.710938 6.875 -4.265625 C 7.132812 -3.828125 7.265625 -3.335938 7.265625 -2.796875 Z M 7.265625 -2.796875 "/></g></g></g></g><g fill="#86bc24" fill-opacity="1"><g transform="translate(12.315157, 28.537411)"><g><path d="M 6.921875 -0.40625 C 6.921875 -0.320312 6.894531 -0.253906 6.84375 -0.203125 C 6.789062 -0.160156 6.71875 -0.128906 6.625 -0.109375 C 6.476562 -0.0664062 6.226562 -0.0195312 5.875 0.03125 C 5.519531 0.09375 5.109375 0.125 4.640625 0.125 C 4.128906 0.125 3.640625 0.0507812 3.171875 -0.09375 C 2.703125 -0.238281 2.28125 -0.472656 1.90625 -0.796875 C 1.539062 -1.128906 1.25 -1.566406 1.03125 -2.109375 C 0.8125 -2.648438 0.703125 -3.316406 0.703125 -4.109375 L 0.703125 -5.78125 C 0.703125 -6.570312 0.8125 -7.238281 1.03125 -7.78125 C 1.25 -8.320312 1.539062 -8.753906 1.90625 -9.078125 C 2.28125 -9.398438 2.703125 -9.632812 3.171875 -9.78125 C 3.640625 -9.925781 4.128906 -10 4.640625 -10 C 5.109375 -10 5.519531 -9.972656 5.875 -9.921875 C 6.226562 -9.867188 6.476562 -9.816406 6.625 -9.765625 C 6.71875 -9.742188 6.789062 -9.710938 6.84375 -9.671875 C 6.894531 -9.640625 6.921875 -9.578125 6.921875 -9.484375 L 6.921875 -8.1875 C 6.921875 -8.007812 6.832031 -7.921875 6.65625 -7.921875 C 6.644531 -7.921875 6.640625 -7.921875 6.640625 -7.921875 C 6.640625 -7.921875 6.632812 -7.921875 6.625 -7.921875 C 6.375 -7.941406 6.070312 -7.960938 5.71875 -7.984375 C 5.375 -8.015625 5.019531 -8.03125 4.65625 -8.03125 C 4.351562 -8.03125 4.070312 -7.960938 3.8125 -7.828125 C 3.5625 -7.703125 3.363281 -7.476562 3.21875 -7.15625 C 3.070312 -6.832031 3 -6.375 3 -5.78125 L 3 -4.109375 C 3 -3.523438 3.070312 -3.066406 3.21875 -2.734375 C 3.363281 -2.410156 3.5625 -2.179688 3.8125 -2.046875 C 4.070312 -1.921875 4.351562 -1.859375 4.65625 -1.859375 C 5.019531 -1.859375 5.375 -1.867188 5.71875 -1.890625 C 6.070312 -1.921875 6.375 -1.945312 6.625 -1.96875 C 6.632812 -1.96875 6.640625 -1.96875 6.640625 -1.96875 C 6.640625 -1.96875 6.644531 -1.96875 6.65625 -1.96875 C 6.832031 -1.96875 6.921875 -1.878906 6.921875 -1.703125 Z M 6.921875 -0.40625 "/></g></g></g><g fill="#86bc24" fill-opacity="1"><g transform="translate(24.110417, 28.537411)"><g><path d="M 3.203125 -0.265625 C 3.203125 -0.191406 3.175781 -0.128906 3.125 -0.078125 C 3.082031 -0.0234375 3.023438 0 2.953125 0 L 1.171875 0 C 1.097656 0 1.039062 -0.0234375 1 -0.078125 C 0.957031 -0.128906 0.9375 -0.191406 0.9375 -0.265625 L 0.9375 -9.625 C 0.9375 -9.789062 1.015625 -9.875 1.171875 -9.875 L 2.953125 -9.875 C 3.117188 -9.875 3.203125 -9.789062 3.203125 -9.625 Z M 3.203125 -0.265625 "/></g></g></g><g fill="#86bc24" fill-opacity="1"><g transform="translate(32.582, 28.537411)"><g><path d="M 6.96875 -0.328125 C 6.96875 -0.171875 6.878906 -0.078125 6.703125 -0.046875 C 6.472656 -0.015625 6.164062 0.0195312 5.78125 0.0625 C 5.394531 0.101562 4.84375 0.125 4.125 0.125 C 3.695312 0.125 3.285156 0.0820312 2.890625 0 C 2.503906 -0.0703125 2.160156 -0.207031 1.859375 -0.40625 C 1.554688 -0.601562 1.316406 -0.890625 1.140625 -1.265625 C 0.972656 -1.640625 0.890625 -2.128906 0.890625 -2.734375 L 0.890625 -7.15625 C 0.890625 -7.757812 0.972656 -8.25 1.140625 -8.625 C 1.316406 -9 1.554688 -9.285156 1.859375 -9.484375 C 2.171875 -9.679688 2.519531 -9.816406 2.90625 -9.890625 C 3.300781 -9.960938 3.710938 -10 4.140625 -10 C 4.859375 -10 5.40625 -9.976562 5.78125 -9.9375 C 6.164062 -9.894531 6.472656 -9.859375 6.703125 -9.828125 C 6.878906 -9.796875 6.96875 -9.707031 6.96875 -9.5625 L 6.96875 -8.328125 C 6.96875 -8.253906 6.941406 -8.191406 6.890625 -8.140625 C 6.835938 -8.085938 6.773438 -8.0625 6.703125 -8.0625 L 4 -8.0625 C 3.6875 -8.0625 3.46875 -7.992188 3.34375 -7.859375 C 3.21875 -7.734375 3.15625 -7.5 3.15625 -7.15625 L 3.15625 -5.9375 L 6.59375 -5.9375 C 6.664062 -5.9375 6.726562 -5.910156 6.78125 -5.859375 C 6.832031 -5.804688 6.859375 -5.742188 6.859375 -5.671875 L 6.859375 -4.421875 C 6.859375 -4.347656 6.832031 -4.285156 6.78125 -4.234375 C 6.726562 -4.179688 6.664062 -4.15625 6.59375 -4.15625 L 3.15625 -4.15625 L 3.15625 -2.734375 C 3.15625 -2.390625 3.21875 -2.148438 3.34375 -2.015625 C 3.46875 -1.890625 3.6875 -1.828125 4 -1.828125 L 6.703125 -1.828125 C 6.773438 -1.828125 6.835938 -1.800781 6.890625 -1.75 C 6.941406 -1.695312 6.96875 -1.632812 6.96875 -1.5625 Z M 6.96875 -0.328125 "/></g></g></g><g fill="#86bc24" fill-opacity="1"><g transform="translate(44.629861, 28.537411)"><g><path d="M 8.765625 -0.5 C 8.765625 -0.363281 8.710938 -0.242188 8.609375 -0.140625 C 8.503906 -0.046875 8.382812 0 8.25 0 L 6.9375 0 C 6.800781 0 6.675781 -0.0195312 6.5625 -0.0625 C 6.457031 -0.113281 6.351562 -0.226562 6.25 -0.40625 L 3.21875 -5.65625 C 3.175781 -5.71875 3.132812 -5.75 3.09375 -5.75 C 3.050781 -5.75 3.03125 -5.71875 3.03125 -5.65625 L 3.03125 -0.265625 C 3.03125 -0.191406 3.003906 -0.128906 2.953125 -0.078125 C 2.898438 -0.0234375 2.835938 0 2.765625 0 L 1.203125 0 C 1.128906 0 1.066406 -0.0234375 1.015625 -0.078125 C 0.960938 -0.128906 0.9375 -0.191406 0.9375 -0.265625 L 0.9375 -9.375 C 0.9375 -9.519531 0.984375 -9.640625 1.078125 -9.734375 C 1.171875 -9.828125 1.289062 -9.875 1.4375 -9.875 L 2.78125 -9.875 C 2.914062 -9.875 3.019531 -9.84375 3.09375 -9.78125 C 3.175781 -9.71875 3.257812 -9.613281 3.34375 -9.46875 L 6.484375 -3.984375 C 6.535156 -3.910156 6.570312 -3.875 6.59375 -3.875 C 6.632812 -3.875 6.65625 -3.914062 6.65625 -4 L 6.65625 -9.625 C 6.65625 -9.695312 6.679688 -9.753906 6.734375 -9.796875 C 6.796875 -9.847656 6.859375 -9.875 6.921875 -9.875 L 8.5 -9.875 C 8.570312 -9.875 8.632812 -9.847656 8.6875 -9.796875 C 8.738281 -9.753906 8.765625 -9.695312 8.765625 -9.625 Z M 8.765625 -0.5 "/></g></g></g><g fill="#86bc24" fill-opacity="1"><g transform="translate(58.658641, 28.537411)"><g><path d="M 6.921875 -0.40625 C 6.921875 -0.320312 6.894531 -0.253906 6.84375 -0.203125 C 6.789062 -0.160156 6.71875 -0.128906 6.625 -0.109375 C 6.476562 -0.0664062 6.226562 -0.0195312 5.875 0.03125 C 5.519531 0.09375 5.109375 0.125 4.640625 0.125 C 4.128906 0.125 3.640625 0.0507812 3.171875 -0.09375 C 2.703125 -0.238281 2.28125 -0.472656 1.90625 -0.796875 C 1.539062 -1.128906 1.25 -1.566406 1.03125 -2.109375 C 0.8125 -2.648438 0.703125 -3.316406 0.703125 -4.109375 L 0.703125 -5.78125 C 0.703125 -6.570312 0.8125 -7.238281 1.03125 -7.78125 C 1.25 -8.320312 1.539062 -8.753906 1.90625 -9.078125 C 2.28125 -9.398438 2.703125 -9.632812 3.171875 -9.78125 C 3.640625 -9.925781 4.128906 -10 4.640625 -10 C 5.109375 -10 5.519531 -9.972656 5.875 -9.921875 C 6.226562 -9.867188 6.476562 -9.816406 6.625 -9.765625 C 6.71875 -9.742188 6.789062 -9.710938 6.84375 -9.671875 C 6.894531 -9.640625 6.921875 -9.578125 6.921875 -9.484375 L 6.921875 -8.1875 C 6.921875 -8.007812 6.832031 -7.921875 6.65625 -7.921875 C 6.644531 -7.921875 6.640625 -7.921875 6.640625 -7.921875 C 6.640625 -7.921875 6.632812 -7.921875 6.625 -7.921875 C 6.375 -7.941406 6.070312 -7.960938 5.71875 -7.984375 C 5.375 -8.015625 5.019531 -8.03125 4.65625 -8.03125 C 4.351562 -8.03125 4.070312 -7.960938 3.8125 -7.828125 C 3.5625 -7.703125 3.363281 -7.476562 3.21875 -7.15625 C 3.070312 -6.832031 3 -6.375 3 -5.78125 L 3 -4.109375 C 3 -3.523438 3.070312 -3.066406 3.21875 -2.734375 C 3.363281 -2.410156 3.5625 -2.179688 3.8125 -2.046875 C 4.070312 -1.921875 4.351562 -1.859375 4.65625 -1.859375 C 5.019531 -1.859375 5.375 -1.867188 5.71875 -1.890625 C 6.070312 -1.921875 6.375 -1.945312 6.625 -1.96875 C 6.632812 -1.96875 6.640625 -1.96875 6.640625 -1.96875 C 6.640625 -1.96875 6.644531 -1.96875 6.65625 -1.96875 C 6.832031 -1.96875 6.921875 -1.878906 6.921875 -1.703125 Z M 6.921875 -0.40625 "/></g></g></g><g fill="#86bc24" fill-opacity="1"><g transform="translate(70.453901, 28.537411)"><g><path d="M 6.96875 -0.328125 C 6.96875 -0.171875 6.878906 -0.078125 6.703125 -0.046875 C 6.472656 -0.015625 6.164062 0.0195312 5.78125 0.0625 C 5.394531 0.101562 4.84375 0.125 4.125 0.125 C 3.695312 0.125 3.285156 0.0820312 2.890625 0 C 2.503906 -0.0703125 2.160156 -0.207031 1.859375 -0.40625 C 1.554688 -0.601562 1.316406 -0.890625 1.140625 -1.265625 C 0.972656 -1.640625 0.890625 -2.128906 0.890625 -2.734375 L 0.890625 -7.15625 C 0.890625 -7.757812 0.972656 -8.25 1.140625 -8.625 C 1.316406 -9 1.554688 -9.285156 1.859375 -9.484375 C 2.171875 -9.679688 2.519531 -9.816406 2.90625 -9.890625 C 3.300781 -9.960938 3.710938 -10 4.140625 -10 C 4.859375 -10 5.40625 -9.976562 5.78125 -9.9375 C 6.164062 -9.894531 6.472656 -9.859375 6.703125 -9.828125 C 6.878906 -9.796875 6.96875 -9.707031 6.96875 -9.5625 L 6.96875 -8.328125 C 6.96875 -8.253906 6.941406 -8.191406 6.890625 -8.140625 C 6.835938 -8.085938 6.773438 -8.0625 6.703125 -8.0625 L 4 -8.0625 C 3.6875 -8.0625 3.46875 -7.992188 3.34375 -7.859375 C 3.21875 -7.734375 3.15625 -7.5 3.15625 -7.15625 L 3.15625 -5.9375 L 6.59375 -5.9375 C 6.664062 -5.9375 6.726562 -5.910156 6.78125 -5.859375 C 6.832031 -5.804688 6.859375 -5.742188 6.859375 -5.671875 L 6.859375 -4.421875 C 6.859375 -4.347656 6.832031 -4.285156 6.78125 -4.234375 C 6.726562 -4.179688 6.664062 -4.15625 6.59375 -4.15625 L 3.15625 -4.15625 L 3.15625 -2.734375 C 3.15625 -2.390625 3.21875 -2.148438 3.34375 -2.015625 C 3.46875 -1.890625 3.6875 -1.828125 4 -1.828125 L 6.703125 -1.828125 C 6.773438 -1.828125 6.835938 -1.800781 6.890625 -1.75 C 6.941406 -1.695312 6.96875 -1.632812 6.96875 -1.5625 Z M 6.96875 -0.328125 "/></g></g></g><g fill="#86bc24" fill-opacity="1"><g transform="translate(82.501762, 28.537411)"><g><path d="M 7.265625 -2.796875 C 7.265625 -2.441406 7.195312 -2.09375 7.0625 -1.75 C 6.9375 -1.40625 6.734375 -1.09375 6.453125 -0.8125 C 6.171875 -0.53125 5.796875 -0.300781 5.328125 -0.125 C 4.867188 0.0390625 4.300781 0.125 3.625 0.125 C 3.101562 0.125 2.640625 0.09375 2.234375 0.03125 C 1.828125 -0.0195312 1.453125 -0.0859375 1.109375 -0.171875 C 1.054688 -0.191406 1 -0.222656 0.9375 -0.265625 C 0.875 -0.304688 0.84375 -0.363281 0.84375 -0.4375 L 0.84375 -1.734375 C 0.84375 -1.910156 0.925781 -2 1.09375 -2 C 1.101562 -2 1.109375 -2 1.109375 -2 C 1.109375 -2 1.113281 -2 1.125 -2 C 1.257812 -1.988281 1.441406 -1.972656 1.671875 -1.953125 C 1.898438 -1.929688 2.144531 -1.910156 2.40625 -1.890625 C 2.664062 -1.878906 2.90625 -1.863281 3.125 -1.84375 C 3.34375 -1.832031 3.519531 -1.828125 3.65625 -1.828125 C 4.113281 -1.828125 4.425781 -1.898438 4.59375 -2.046875 C 4.757812 -2.203125 4.84375 -2.441406 4.84375 -2.765625 C 4.84375 -2.960938 4.78125 -3.128906 4.65625 -3.265625 C 4.539062 -3.398438 4.3125 -3.570312 3.96875 -3.78125 L 2.125 -4.859375 C 1.507812 -5.222656 1.09375 -5.613281 0.875 -6.03125 C 0.664062 -6.457031 0.5625 -6.914062 0.5625 -7.40625 C 0.5625 -7.894531 0.664062 -8.332031 0.875 -8.71875 C 1.082031 -9.113281 1.429688 -9.425781 1.921875 -9.65625 C 2.421875 -9.882812 3.101562 -10 3.96875 -10 C 4.289062 -10 4.640625 -9.984375 5.015625 -9.953125 C 5.390625 -9.921875 5.734375 -9.878906 6.046875 -9.828125 C 6.367188 -9.785156 6.613281 -9.742188 6.78125 -9.703125 C 6.832031 -9.691406 6.878906 -9.664062 6.921875 -9.625 C 6.960938 -9.59375 6.984375 -9.539062 6.984375 -9.46875 L 6.984375 -8.125 C 6.984375 -8.0625 6.96875 -8.003906 6.9375 -7.953125 C 6.90625 -7.910156 6.84375 -7.890625 6.75 -7.890625 C 6.75 -7.890625 6.742188 -7.890625 6.734375 -7.890625 C 6.640625 -7.898438 6.484375 -7.910156 6.265625 -7.921875 C 6.046875 -7.941406 5.796875 -7.957031 5.515625 -7.96875 C 5.242188 -7.988281 4.960938 -8.003906 4.671875 -8.015625 C 4.390625 -8.035156 4.132812 -8.046875 3.90625 -8.046875 C 3.53125 -8.046875 3.265625 -7.988281 3.109375 -7.875 C 2.953125 -7.757812 2.875 -7.582031 2.875 -7.34375 C 2.875 -7.15625 2.929688 -7 3.046875 -6.875 C 3.171875 -6.757812 3.410156 -6.601562 3.765625 -6.40625 L 5.46875 -5.484375 C 6.15625 -5.117188 6.625 -4.710938 6.875 -4.265625 C 7.132812 -3.828125 7.265625 -3.335938 7.265625 -2.796875 Z M 7.265625 -2.796875 "/></g></g></g></g></g><g transform="matrix(1, 0, 0, 1, 60, 10)"><g clip-path="url(#a400046fd7)"><g fill="#86bc24" fill-opacity="1"><g transform="translate(1.791115, 41.289859)"><g><path d="M 16.375 -29.6875 C 19 -29.6875 21.28125 -29.25 23.21875 -28.375 C 25.15625 -27.5 26.644531 -26.253906 27.6875 -24.640625 C 28.738281 -23.023438 29.265625 -21.113281 29.265625 -18.90625 C 29.265625 -16.726562 28.738281 -14.828125 27.6875 -13.203125 C 26.644531 -11.578125 25.15625 -10.332031 23.21875 -9.46875 C 21.28125 -8.613281 19 -8.1875 16.375 -8.1875 L 10.390625 -8.1875 L 10.390625 0 L 3.515625 0 L 3.515625 -29.6875 Z M 15.984375 -13.78125 C 18.046875 -13.78125 19.613281 -14.222656 20.6875 -15.109375 C 21.769531 -16.003906 22.3125 -17.269531 22.3125 -18.90625 C 22.3125 -20.582031 21.769531 -21.863281 20.6875 -22.75 C 19.613281 -23.644531 18.046875 -24.09375 15.984375 -24.09375 L 10.390625 -24.09375 L 10.390625 -13.78125 Z M 15.984375 -13.78125 "/></g></g></g><g fill="#86bc24" fill-opacity="1"><g transform="translate(32.404234, 41.289859)"><g><path d="M 22.4375 0 L 16.703125 -8.265625 L 10.390625 -8.265625 L 10.390625 0 L 3.515625 0 L 3.515625 -29.6875 L 16.375 -29.6875 C 19 -29.6875 21.28125 -29.25 23.21875 -28.375 C 25.15625 -27.5 26.644531 -26.253906 27.6875 -24.640625 C 28.738281 -23.023438 29.265625 -21.113281 29.265625 -18.90625 C 29.265625 -16.707031 28.734375 -14.804688 27.671875 -13.203125 C 26.609375 -11.609375 25.101562 -10.390625 23.15625 -9.546875 L 29.8125 0 Z M 22.3125 -18.90625 C 22.3125 -20.582031 21.769531 -21.863281 20.6875 -22.75 C 19.613281 -23.644531 18.046875 -24.09375 15.984375 -24.09375 L 10.390625 -24.09375 L 10.390625 -13.734375 L 15.984375 -13.734375 C 18.046875 -13.734375 19.613281 -14.1875 20.6875 -15.09375 C 21.769531 -16 22.3125 -17.269531 22.3125 -18.90625 Z M 22.3125 -18.90625 "/></g></g></g><g fill="#86bc24" fill-opacity="1"><g transform="translate(63.568624, 41.289859)"><g><path d="M 3.515625 -29.6875 L 10.390625 -29.6875 L 10.390625 0 L 3.515625 0 Z M 3.515625 -29.6875 "/></g></g></g><g fill="#86bc24" fill-opacity="1"><g transform="translate(77.476003, 41.289859)"><g><path d="M 17.765625 -10.515625 L 17.765625 0 L 10.890625 0 L 10.890625 -10.609375 L -0.59375 -29.6875 L 6.703125 -29.6875 L 14.625 -16.5 L 22.5625 -29.6875 L 29.296875 -29.6875 Z M 17.765625 -10.515625 "/></g></g></g><g fill="#86bc24" fill-opacity="1"><g transform="translate(104.315304, 41.289859)"><g><path d="M 23.0625 -6.359375 L 9.28125 -6.359375 L 6.65625 0 L -0.375 0 L 12.84375 -29.6875 L 19.640625 -29.6875 L 32.90625 0 L 25.703125 0 Z M 20.90625 -11.578125 L 16.203125 -22.9375 L 11.484375 -11.578125 Z M 20.90625 -11.578125 "/></g></g></g></g></g></g></g></svg>